Simulation
nRows=32
nColumns=15
endheader
time  TH_x TH_y TH_z SC_y  SC_z  SC_x  AC_y  AC_z  AC_x  GH_y  GH_z  GH_yy  EL_x  PS_y
1.55  0.000000  0.000000  0.000000  -33.57970231124955  5.925293796691734  47.16326166703633  54.50815596110035  -12.813172588332062  -19.20428942455906  20.63676692005393  55.57467194906088  -18.181641441349655  18.28044022243492  0.000000
1.581  0.000000  0.000000  0.000000  -33.67043308305095  6.014392354658238  47.0798917255313  54.590596921470876  -12.581195959263516  -18.894093327864912  20.599569352016648  56.06332023978007  -18.275192085272415  18.2299114909259  0.000000
1.612  0.000000  0.000000  0.000000  -33.74997541140633  6.081296939053375  46.980948105987814  54.668444475195436  -12.371337309045176  -18.62263836659524  20.585256949763505  56.45941879254998  -18.3794705649812  18.18453959095821  0.000000
1.643  0.000000  0.000000  0.000000  -33.818654760393756  6.126183364423778  46.871221743612985  54.74052351042861  -12.18492968164745  -18.393039007298583  20.593410524468144  56.760665950128335  -18.49480940288442  18.144364661494436  0.000000
1.674  0.000000  0.000000  0.000000  -33.87434655097785  6.148826667400499  46.75117518095435  54.80640541638563  -12.023312849283336  -18.207751229513175  20.623179319370838  56.96583286746609  -18.62163175819059  18.109545296544105  0.000000
1.705  0.000000  0.000000  0.000000  -33.91793264134456  6.149494433851025  46.62477409915689  54.86549071502071  -11.887952719632498  -18.068454520782385  20.67390999757714  57.073781637752404  -18.759777056329547  18.0800883202839  0.000000
1.736  0.000000  0.000000  0.000000  -33.94782574657729  6.12801715616516  46.49168758907057  54.91789519799823  -11.780231065929334  -17.976229246882752  20.744550693678118  57.084403768216866  -18.909171251858538  18.05615921105506  0.000000
1.767  0.000000  0.000000  0.000000  -33.96545006287164  6.084698608681385  46.3548824880438  54.96357233981458  -11.70151711731968  -17.93135341463859  20.834332230575228  56.99774892331232  -19.06918171147221  18.03772315625407  0.000000
1.798  0.000000  0.000000  0.000000  -33.969750652247725  6.019402386584815  46.21310656632579  55.0031689918186  -11.65307586231681  -17.933523985204513  20.942102563722102  56.8148244381091  -19.239240601468047  18.024947123401883  0.000000
1.829  0.000000  0.000000  0.000000  -33.962685392284286  5.932487121284028  46.06818897553619  55.03720448554486  -11.636079283060075  -17.981478260664918  21.06695121177928  56.53682129205435  -19.41818847901888  18.017794860771026  0.000000
1.8599999999999999  0.000000  0.000000  0.000000  -33.943735092481326  5.823933810217415  45.91782503259011  55.066846365338925  -11.651667896300472  -18.073351305457045  21.20759981931273  56.16584054446119  -19.60492657567565  18.01641032535216  0.000000
1.891  0.000000  0.000000  0.000000  -33.91534487971938  5.694244900306788  45.762672056443066  55.093058765339855  -11.70082500441603  -18.2062579866251  21.362994099495463  55.70416264880283  -19.797699364324096  18.020753940790982  0.000000
1.922  0.000000  0.000000  0.000000  -33.877412302006036  5.543601167066458  45.599429942040715  55.117304497554436  -11.784503041572384  -18.376806496789015  21.531734623804237  55.15483101467581  -19.994836065030494  18.030953445960737  0.000000
1.953  0.000000  0.000000  0.000000  -33.83267202851667  5.372740318876541  45.4278365851698  55.14059915891308  -11.903320248230141  -18.580674280651216  21.71262571539674  54.52079887264453  -20.19397676720904  18.046981635948267  0.000000
1.984  0.000000  0.000000  0.000000  -33.78112763402453  5.18207604885963  45.24401736987873  55.1641282545112  -12.057717131987646  -18.81344052755319  21.904227636392097  53.805489967477804  -20.392927396618422  18.068883587884553  0.000000
2.015  0.000000  0.000000  0.000000  -33.72535663960681  4.972554877814328  45.04744435105741  55.18814686376502  -12.247513205251797  -19.070300989435072  22.10535579904004  53.011832911846376  -20.58882083198071  18.09662026277157  0.000000
2.046  0.000000  0.000000  0.000000  -33.66508594471136  4.744757229453115  44.834377419616175  55.21264529127377  -12.47218817129831  -19.347101598971307  22.314803002602808  52.14298293263922  -20.779224991569755  18.130160145463712  0.000000
2.077  0.000000  0.000000  0.000000  -33.60243258471788  4.499438089004601  44.605111132966506  55.23638747362942  -12.730446245203066  -19.640242588125208  22.531565562235965  51.20127729136664  -20.961171149476527  18.169367390704462  0.000000
2.108  0.000000  0.000000  0.000000  -33.536496332559224  4.237591932312345  44.35688250747766  55.25727102396166  -13.020582166390914  -19.94726604550177  22.754768144183814  50.189031563316604  -21.132180602799057  18.2140373419215  0.000000
2.139  0.000000  0.000000  0.000000  -33.46886504463176  3.9607486442278086  44.08992512562481  55.27199009289869  -13.339723545921856  -20.26570269883834  22.985032422676326  49.108424892906434  -21.290107825098943  18.263592470831565  0.000000
2.17  0.000000  0.000000  0.000000  -33.397854362355815  3.6695021759880024  43.801578666934866  55.27802330014847  -13.684720575756838  -20.593677761662814  23.223497765011142  47.96257172362959  -21.433496644649672  18.31843104950469  0.000000
2.201  0.000000  0.000000  0.000000  -33.32444362662778  3.365332690840348  43.49435348159075  55.273105063277754  -14.05354511315791  -20.928431565646385  23.47087516211288  46.75363697986566  -21.559807634239945  18.378721057796312  0.000000
2.232  0.000000  0.000000  0.000000  -33.24674360923626  3.0501050873029123  43.167454003231484  55.254679163913  -14.444610495428593  -21.267787958849713  23.727937445805964  45.484509830034966  -21.667425728796633  18.444202351823808  0.000000
2.263  0.000000  0.000000  0.000000  -33.16536753929841  2.7258603470435108  42.82360290805801  55.21898740288972  -14.855624691106879  -21.61042396860793  23.99590466067598  44.15799302317396  -21.754829949192025  18.515105522976594  0.000000
2.294  0.000000  0.000000  0.000000  -33.07851818319472  2.3945218980087266  42.46259617763353  55.163557959818654  -15.28421440325883  -21.955307441317483  24.275619214816963  42.77719820652113  -21.821979972929412  18.591134971129794  0.000000
2.325  0.000000  0.000000  0.000000  -32.987174467376036  2.0575396295090966  42.088835576619765  55.08667661415485  -15.72791119372949  -22.301119858977827  24.56583753569896  41.34429167896531  -21.86603423163536  18.672056029113445  0.000000
2.356  0.000000  0.000000  0.000000  -32.889578730051596  1.7165919201279485  41.703048571625715  54.98712736833873  -16.18434106252683  -22.64690453007793  24.86505598075076  39.86213518403681  -21.88497549824527  18.757777822643277  0.000000
2.387  0.000000  0.000000  0.000000  -32.786541681370636  1.3738132700735781  41.30976249056241  54.86304330608637  -16.65141705603482  -22.99182763014373  25.171544815938653  38.33327018344471  -21.876630483899074  18.848263227135366  0.000000
2.418  0.000000  0.000000  0.000000  -32.67602188505617  1.0312831160451552  40.909941023209214  54.71348141988066  -17.126816226608238  -23.335516492247482  25.48379628168819  36.76072286505596  -21.840082393025913  18.943268662987204  0.000000
2.449  0.000000  0.000000  0.000000  -32.558576269038404  0.6911061946490495  40.5086298896015  54.53711495652321  -17.60854012048429  -23.677772069529663  25.799691673253424  35.14713247014048  -21.773610655059557  19.042760139441956  0.000000
2.48  0.000000  0.000000  0.000000  -32.43203884968446  0.35539801177451413  40.107363398521635  54.33392359787083  -18.09430243933972  -24.01869413190703  26.117763498037768  33.4954921993319  -21.677130241199077  19.14647650240337  0.000000
2.511  0.000000  0.000000  0.000000  -32.296942491433114  0.02614077752247301  39.711764698777316  54.10339604503568  -18.582324673828648  -24.35851793172967  26.43574710169302  31.808610459362264  -21.549567295419028  19.25438622605997  0.000000
